Info:

DATE: 2012-07-20

Format : Matroska
Format version : Version 2
File size : 923 MiB
Duration : 42mn 10s
Overall bit rate : 3 061 Kbps
Writing application : Lavf54.6.100
Writing library : Lavf54.6.100

Video
ID : 1
Format : AVC
Format/Info : Advanced Video Codec
Format profile : High@L4.1
Format settings, CABAC : Yes
Format settings, ReFrames : 5 frames
Codec ID : V_MPEG4/ISO/AVC
Duration : 42mn 10s
Bit rate : 2 616 Kbps
Width : 1 280 pixels
Height : 724 pixels
Display aspect ratio : 16:9
Frame rate : 23.976 fps
Color space : YUV
Chroma subsampling : 4:2:0
Bit depth : 8 bits
Scan type : Progressive
Bits/(Pixel*Frame) : 0.118
Stream size : 789 MiB (85%)
Default : Yes
Forced : No

Audio
ID : 2
Format : AC-3
Format/Info : Audio Coding 3
Mode extension : CM (complete main)
Format settings, Endianness : Big
Codec ID : A_AC3
Duration : 42mn 10s
Bit rate mode : Constant
Bit rate : 384 Kbps
Channel(s) : 6 channels
Channel positions : Front: L C R, Side: L R, LFE
Sampling rate : 48.0 KHz
Bit depth : 16 bits
Compression mode : Lossy
Stream size : 116 MiB (13%)
Default : Yes
Forced : No
